<svg width="1708" height="333" viewBox="0 0 1708 333" fill="none" xmlns="http://www.w3.org/2000/svg">
<g filter="url(#filter0_i_135_186)">
<path d="M146.628 292.231L146.628 269.908L152.021 268.087L152.159 292.172L146.628 292.231Z" fill="#838383"/>
</g>
<g filter="url(#filter1_d_135_186)">
<path d="M193 309C193 309.649 192.588 310.442 191.432 311.316C190.292 312.179 188.579 312.998 186.373 313.704C181.972 315.113 175.829 316 169 316C162.171 316 156.028 315.113 151.627 313.704C149.421 312.998 147.708 312.179 146.568 311.316C145.412 310.442 145 309.649 145 309C145 308.351 145.412 307.558 146.568 306.684C147.708 305.821 149.421 305.002 151.627 304.296C156.028 302.887 162.171 302 169 302C175.829 302 181.972 302.887 186.373 304.296C188.579 305.002 190.292 305.821 191.432 306.684C192.588 307.558 193 308.351 193 309Z" stroke="#838383" stroke-width="2" shape-rendering="crispEdges"/>
</g>
<g filter="url(#filter2_d_135_186)">
<path d="M193 312C193 312.649 192.588 313.442 191.432 314.316C190.292 315.179 188.579 315.998 186.373 316.704C181.972 318.113 175.829 319 169 319C162.171 319 156.028 318.113 151.627 316.704C149.421 315.998 147.708 315.179 146.568 314.316C145.412 313.442 145 312.649 145 312C145 311.351 145.412 310.558 146.568 309.684C147.708 308.821 149.421 308.002 151.627 307.296C156.028 305.887 162.171 305 169 305C175.829 305 181.972 305.887 186.373 307.296C188.579 308.002 190.292 308.821 191.432 309.684C192.588 310.558 193 311.351 193 312Z" stroke="#838383" stroke-width="2" shape-rendering="crispEdges"/>
</g>
<path d="M193 306C193 306.649 192.588 307.442 191.432 308.316C190.292 309.179 188.579 309.998 186.373 310.704C181.972 312.113 175.829 313 169 313C162.171 313 156.028 312.113 151.627 310.704C149.421 309.998 147.708 309.179 146.568 308.316C145.412 307.442 145 306.649 145 306C145 305.351 145.412 304.558 146.568 303.684C147.708 302.821 149.421 302.002 151.627 301.296C156.028 299.887 162.171 299 169 299C175.829 299 181.972 299.887 186.373 301.296C188.579 302.002 190.292 302.821 191.432 303.684C192.588 304.558 193 305.351 193 306Z" stroke="#838383" stroke-width="2"/>
<g filter="url(#filter3_f_135_186)">
<path d="M156 312.034C167.49 314.934 174.571 314.655 188 311" stroke="black" stroke-width="0.5" stroke-linecap="round"/>
</g>
<g filter="url(#filter4_f_135_186)">
<path d="M189.073 302.668C177.089 299.526 169.544 299.258 155 301.274" stroke="black" stroke-width="0.5" stroke-linecap="round"/>
</g>
<g filter="url(#filter5_d_135_186)">
<path d="M1702 316C1702 316.649 1701.59 317.442 1700.43 318.316C1699.29 319.179 1697.58 319.998 1695.37 320.704C1690.97 322.113 1684.83 323 1678 323C1671.17 323 1665.03 322.113 1660.63 320.704C1658.42 319.998 1656.71 319.179 1655.57 318.316C1654.41 317.442 1654 316.649 1654 316C1654 315.351 1654.41 314.558 1655.57 313.684C1656.71 312.821 1658.42 312.002 1660.63 311.296C1665.03 309.887 1671.17 309 1678 309C1684.83 309 1690.97 309.887 1695.37 311.296C1697.58 312.002 1699.29 312.821 1700.43 313.684C1701.59 314.558 1702 315.351 1702 316Z" stroke="#838383" stroke-width="2" shape-rendering="crispEdges"/>
</g>
<g filter="url(#filter6_d_135_186)">
<path d="M1702 319C1702 319.649 1701.59 320.442 1700.43 321.316C1699.29 322.179 1697.58 322.998 1695.37 323.704C1690.97 325.113 1684.83 326 1678 326C1671.17 326 1665.03 325.113 1660.63 323.704C1658.42 322.998 1656.71 322.179 1655.57 321.316C1654.41 320.442 1654 319.649 1654 319C1654 318.351 1654.41 317.558 1655.57 316.684C1656.71 315.821 1658.42 315.002 1660.63 314.296C1665.03 312.887 1671.17 312 1678 312C1684.83 312 1690.97 312.887 1695.37 314.296C1697.58 315.002 1699.29 315.821 1700.43 316.684C1701.59 317.558 1702 318.351 1702 319Z" stroke="#838383" stroke-width="2" shape-rendering="crispEdges"/>
</g>
<path d="M1702 313C1702 313.649 1701.59 314.442 1700.43 315.316C1699.29 316.179 1697.58 316.998 1695.37 317.704C1690.97 319.113 1684.83 320 1678 320C1671.17 320 1665.03 319.113 1660.63 317.704C1658.42 316.998 1656.71 316.179 1655.57 315.316C1654.41 314.442 1654 313.649 1654 313C1654 312.351 1654.41 311.558 1655.57 310.684C1656.71 309.821 1658.42 309.002 1660.63 308.296C1665.03 306.887 1671.17 306 1678 306C1684.83 306 1690.97 306.887 1695.37 308.296C1697.58 309.002 1699.29 309.821 1700.43 310.684C1701.59 311.558 1702 312.351 1702 313Z" stroke="#838383" stroke-width="2"/>
<g filter="url(#filter7_f_135_186)">
<path d="M1665 319.034C1676.49 321.934 1683.57 321.655 1697 318" stroke="black" stroke-width="0.5" stroke-linecap="round"/>
</g>
<g filter="url(#filter8_f_135_186)">
<path d="M1698.07 309.668C1686.09 306.526 1678.54 306.258 1664 308.274" stroke="black" stroke-width="0.5" stroke-linecap="round"/>
</g>
<g filter="url(#filter9_i_135_186)">
<rect x="144" y="271" width="12" height="19" fill="#09A246"/>
</g>
<path d="M146 292H153V300L146 303V292Z" fill="#838383"/>
<path d="M188.545 315C194.378 317.842 197.8 317.627 204 315V316.823C196.903 319.972 193.255 319.468 187 316.823L188.545 315Z" fill="#838383"/>
<rect x="204" y="313" width="11" height="6" fill="#09A146"/>
<path d="M1699.88 6.57324C1701.04 6.47709 1702.2 6.6558 1703.25 7.09293C1704.31 7.53006 1705.23 8.21156 1705.93 9.0747C1706.63 9.93784 1707.08 10.9549 1707.25 12.0322C1707.42 13.1096 1707.3 14.2126 1706.9 15.2397C1706.5 16.2669 1705.83 17.1852 1704.96 17.9101C1704.09 18.635 1703.04 19.1432 1701.91 19.3879C1700.77 19.6327 1699.6 19.6061 1698.49 19.3106C1697.37 19.0152 1696.36 18.4603 1695.54 17.6972L1696.62 16.6678C1697.26 17.2619 1698.05 17.6938 1698.92 17.9238C1699.78 18.1538 1700.7 18.1745 1701.58 17.984C1702.46 17.7934 1703.28 17.3978 1703.96 16.8335C1704.64 16.2692 1705.16 15.5544 1705.47 14.7548C1705.78 13.9552 1705.87 13.0966 1705.74 12.2579C1705.61 11.4192 1705.25 10.6275 1704.71 9.9556C1704.17 9.28368 1703.45 8.75316 1702.63 8.41288C1701.81 8.07259 1700.9 7.93348 1700 8.00833L1699.88 6.57324Z" fill="#BD3636"/>
<path d="M1699.88 3.57324C1701.05 3.47623 1702.22 3.659 1703.28 4.10443C1704.35 4.54985 1705.27 5.24337 1705.97 6.12004C1706.66 6.9967 1707.11 8.02784 1707.27 9.1169C1707.42 10.206 1707.28 11.3173 1706.86 12.3469C1706.44 13.3765 1705.74 14.2906 1704.85 15.0037C1703.95 15.7168 1702.87 16.2056 1701.73 16.4241C1700.58 16.6427 1699.39 16.584 1698.28 16.2536C1697.17 15.9231 1696.17 15.3316 1695.37 14.5346L1696.49 13.5412C1697.11 14.1617 1697.89 14.6221 1698.76 14.8794C1699.62 15.1366 1700.55 15.1823 1701.44 15.0122C1702.33 14.842 1703.17 14.4616 1703.87 13.9064C1704.56 13.3513 1705.1 12.6397 1705.43 11.8382C1705.76 11.0367 1705.87 10.1716 1705.75 9.32381C1705.63 8.47603 1705.28 7.67333 1704.74 6.99089C1704.2 6.30844 1703.48 5.76857 1702.65 5.42183C1701.82 5.07509 1700.91 4.93281 1700 5.00833L1699.88 3.57324Z" fill="#2924FF"/>
<path d="M1699.88 0.573242C1700.94 0.485134 1702.01 0.627713 1702.99 0.989907C1703.98 1.3521 1704.86 1.92416 1705.57 2.66165C1706.27 3.39914 1706.79 4.28222 1707.08 5.24229C1707.36 6.20237 1707.41 7.21359 1707.21 8.19744C1707.01 9.18129 1706.58 10.1113 1705.94 10.9152C1705.3 11.719 1704.47 12.3752 1703.52 12.8326C1702.57 13.2901 1701.53 13.5366 1700.47 13.5529C1699.41 13.5692 1698.36 13.3549 1697.4 12.9267L1698.07 11.6249C1698.81 11.9582 1699.63 12.125 1700.46 12.1124C1701.28 12.0997 1702.1 11.9078 1702.84 11.5517C1703.57 11.1956 1704.22 10.6848 1704.72 10.059C1705.21 9.43324 1705.55 8.70929 1705.71 7.94341C1705.86 7.17753 1705.82 6.39034 1705.6 5.64297C1705.38 4.89559 1704.98 4.20816 1704.43 3.63406C1703.88 3.05995 1703.19 2.61463 1702.42 2.33268C1701.66 2.05073 1700.83 1.93974 1700 2.00833L1699.88 0.573242Z" fill="#3CFF1D"/>
<g filter="url(#filter10_i_135_186)">
<path d="M1689.22 13.3986L1696.69 13.2313L1697.1 20.7658L1688.41 21.2293L1689.22 13.3986Z" fill="#3D3939"/>
</g>
<path d="M1689 13L1697 10.5L1698.5 12L1697 14H1689V13Z" fill="black"/>
<g filter="url(#filter11_i_135_186)">
<path d="M39.6428 46.3866C40.2245 43.654 40.0943 40.8372 39.2626 38.1574C38.4309 35.4776 36.9202 33.0078 34.8493 30.942C32.7783 28.8763 30.2034 27.2707 27.3269 26.2514C24.4503 25.2321 21.3503 24.8268 18.2704 25.0674C15.1905 25.3081 12.2144 26.188 9.57603 27.6382C6.93763 29.0883 4.70868 31.0692 3.06422 33.4253C1.41976 35.7813 0.40456 38.4484 0.098349 41.2171C-0.207862 43.9858 0.203252 46.7807 1.2994 49.3822L5.43157 47.972C4.57763 45.9453 4.25735 43.768 4.4959 41.6111C4.73445 39.4542 5.52533 37.3764 6.80642 35.541C8.08752 33.7055 9.82395 32.1623 11.8794 31.0326C13.9348 29.9029 16.2532 29.2173 18.6526 29.0299C21.0519 28.8424 23.4669 29.1581 25.7079 29.9522C27.9488 30.7463 29.9548 31.9971 31.5681 33.6064C33.1815 35.2158 34.3583 37.1398 35.0063 39.2274C35.6542 41.3151 35.7556 43.5095 35.3025 45.6383L39.6428 46.3866Z" fill="#F31111"/>
</g>
<g filter="url(#filter12_i_135_186)">
<path d="M50.6428 43.3866C51.2245 40.654 51.0943 37.8372 50.2626 35.1574C49.4309 32.4776 47.9202 30.0078 45.8493 27.942C43.7783 25.8763 41.2034 24.2707 38.3269 23.2514C35.4503 22.2321 32.3503 21.8268 29.2704 22.0674C26.1905 22.3081 23.2144 23.188 20.576 24.6382C17.9376 26.0883 15.7087 28.0692 14.0642 30.4253C12.4198 32.7813 11.4046 35.4484 11.0983 38.2171C10.7921 40.9858 11.2033 43.7807 12.2994 46.3822L16.4316 44.972C15.5776 42.9453 15.2574 40.768 15.4959 38.6111C15.7345 36.4542 16.5253 34.3764 17.8064 32.541C19.0875 30.7055 20.824 29.1623 22.8794 28.0326C24.9348 26.9029 27.2532 26.2173 29.6526 26.0299C32.0519 25.8424 34.4669 26.1581 36.7079 26.9522C38.9488 27.7463 40.9548 28.9971 42.5681 30.6064C44.1815 32.2158 45.3583 34.1398 46.0063 36.2274C46.6542 38.3151 46.7556 40.5095 46.3025 42.6383L50.6428 43.3866Z" fill="#3111F3"/>
</g>
<g filter="url(#filter13_i_135_186)">
<rect x="34" y="45" width="7" height="4" fill="#493123"/>
</g>
<g filter="url(#filter14_i_135_186)">
<rect x="33" y="49" width="9" height="4" fill="#3D5734"/>
</g>
<g filter="url(#filter15_i_135_186)">
<rect x="45" y="42" width="7" height="4" fill="#493123"/>
</g>
<g filter="url(#filter16_i_135_186)">
<rect x="44" y="46" width="9" height="4" fill="#3D5734"/>
</g>
<rect x="1691" y="21" width="4" height="286" fill="#838383"/>
<rect x="1639" y="319" width="15" height="2" fill="#838383"/>
<rect x="1615" y="311" width="24" height="21" fill="#1E1C1C"/>
<path d="M1623.02 311.039C1623.01 310.244 1623.38 309.479 1624.03 308.912C1624.68 308.346 1625.57 308.025 1626.5 308.02C1627.43 308.014 1628.32 308.325 1628.98 308.884C1629.64 309.443 1630.01 310.204 1630.02 311L1626.52 311.02L1623.02 311.039Z" fill="#DE1313"/>
<defs>
<filter id="filter0_i_135_186" x="146.628" y="268.087" width="5.53076" height="24.1437" filterUnits="userSpaceOnUse" color-interpolation-filters="sRGB">
<feFlood flood-opacity="0" result="BackgroundImageFix"/>
<feBlend mode="normal" in="SourceGraphic" in2="BackgroundImageFix" result="shape"/>
<feColorMatrix in="SourceAlpha" type="matrix" values="0 0 0 0 0 0 0 0 0 0 0 0 0 0 0 0 0 0 127 0" result="hardAlpha"/>
<feOffset dy="-1"/>
<feComposite in2="hardAlpha" operator="arithmetic" k2="-1" k3="1"/>
<feColorMatrix type="matrix" values="0 0 0 0 0 0 0 0 0 0 0 0 0 0 0 0 0 0 0.25 0"/>
<feBlend mode="normal" in2="shape" result="effect1_innerShadow_135_186"/>
</filter>
<filter id="filter1_d_135_186" x="140" y="299" width="58" height="24" filterUnits="userSpaceOnUse" color-interpolation-filters="sRGB">
<feFlood flood-opacity="0" result="BackgroundImageFix"/>
<feColorMatrix in="SourceAlpha" type="matrix" values="0 0 0 0 0 0 0 0 0 0 0 0 0 0 0 0 0 0 127 0" result="hardAlpha"/>
<feOffset dy="2"/>
<feGaussianBlur stdDeviation="2"/>
<feComposite in2="hardAlpha" operator="out"/>
<feColorMatrix type="matrix" values="0 0 0 0 0 0 0 0 0 0 0 0 0 0 0 0 0 0 0.61 0"/>
<feBlend mode="normal" in2="BackgroundImageFix" result="effect1_dropShadow_135_186"/>
<feBlend mode="normal" in="SourceGraphic" in2="effect1_dropShadow_135_186" result="shape"/>
</filter>
<filter id="filter2_d_135_186" x="140" y="302" width="58" height="24" filterUnits="userSpaceOnUse" color-interpolation-filters="sRGB">
<feFlood flood-opacity="0" result="BackgroundImageFix"/>
<feColorMatrix in="SourceAlpha" type="matrix" values="0 0 0 0 0 0 0 0 0 0 0 0 0 0 0 0 0 0 127 0" result="hardAlpha"/>
<feOffset dy="2"/>
<feGaussianBlur stdDeviation="2"/>
<feComposite in2="hardAlpha" operator="out"/>
<feColorMatrix type="matrix" values="0 0 0 0 0 0 0 0 0 0 0 0 0 0 0 0 0 0 0.61 0"/>
<feBlend mode="normal" in2="BackgroundImageFix" result="effect1_dropShadow_135_186"/>
<feBlend mode="normal" in="SourceGraphic" in2="effect1_dropShadow_135_186" result="shape"/>
</filter>
<filter id="filter3_f_135_186" x="154.75" y="309.75" width="34.5" height="5.50012" filterUnits="userSpaceOnUse" color-interpolation-filters="sRGB">
<feFlood flood-opacity="0" result="BackgroundImageFix"/>
<feBlend mode="normal" in="SourceGraphic" in2="BackgroundImageFix" result="shape"/>
<feGaussianBlur stdDeviation="0.5" result="effect1_foregroundBlur_135_186"/>
</filter>
<filter id="filter4_f_135_186" x="153.749" y="298.737" width="36.5752" height="5.18018" filterUnits="userSpaceOnUse" color-interpolation-filters="sRGB">
<feFlood flood-opacity="0" result="BackgroundImageFix"/>
<feBlend mode="normal" in="SourceGraphic" in2="BackgroundImageFix" result="shape"/>
<feGaussianBlur stdDeviation="0.5" result="effect1_foregroundBlur_135_186"/>
</filter>
<filter id="filter5_d_135_186" x="1649" y="306" width="58" height="24" filterUnits="userSpaceOnUse" color-interpolation-filters="sRGB">
<feFlood flood-opacity="0" result="BackgroundImageFix"/>
<feColorMatrix in="SourceAlpha" type="matrix" values="0 0 0 0 0 0 0 0 0 0 0 0 0 0 0 0 0 0 127 0" result="hardAlpha"/>
<feOffset dy="2"/>
<feGaussianBlur stdDeviation="2"/>
<feComposite in2="hardAlpha" operator="out"/>
<feColorMatrix type="matrix" values="0 0 0 0 0 0 0 0 0 0 0 0 0 0 0 0 0 0 0.61 0"/>
<feBlend mode="normal" in2="BackgroundImageFix" result="effect1_dropShadow_135_186"/>
<feBlend mode="normal" in="SourceGraphic" in2="effect1_dropShadow_135_186" result="shape"/>
</filter>
<filter id="filter6_d_135_186" x="1649" y="309" width="58" height="24" filterUnits="userSpaceOnUse" color-interpolation-filters="sRGB">
<feFlood flood-opacity="0" result="BackgroundImageFix"/>
<feColorMatrix in="SourceAlpha" type="matrix" values="0 0 0 0 0 0 0 0 0 0 0 0 0 0 0 0 0 0 127 0" result="hardAlpha"/>
<feOffset dy="2"/>
<feGaussianBlur stdDeviation="2"/>
<feComposite in2="hardAlpha" operator="out"/>
<feColorMatrix type="matrix" values="0 0 0 0 0 0 0 0 0 0 0 0 0 0 0 0 0 0 0.61 0"/>
<feBlend mode="normal" in2="BackgroundImageFix" result="effect1_dropShadow_135_186"/>
<feBlend mode="normal" in="SourceGraphic" in2="effect1_dropShadow_135_186" result="shape"/>
</filter>
<filter id="filter7_f_135_186" x="1663.75" y="316.75" width="34.5" height="5.50012" filterUnits="userSpaceOnUse" color-interpolation-filters="sRGB">
<feFlood flood-opacity="0" result="BackgroundImageFix"/>
<feBlend mode="normal" in="SourceGraphic" in2="BackgroundImageFix" result="shape"/>
<feGaussianBlur stdDeviation="0.5" result="effect1_foregroundBlur_135_186"/>
</filter>
<filter id="filter8_f_135_186" x="1662.75" y="305.737" width="36.5742" height="5.18018" filterUnits="userSpaceOnUse" color-interpolation-filters="sRGB">
<feFlood flood-opacity="0" result="BackgroundImageFix"/>
<feBlend mode="normal" in="SourceGraphic" in2="BackgroundImageFix" result="shape"/>
<feGaussianBlur stdDeviation="0.5" result="effect1_foregroundBlur_135_186"/>
</filter>
<filter id="filter9_i_135_186" x="144" y="271" width="12" height="19" filterUnits="userSpaceOnUse" color-interpolation-filters="sRGB">
<feFlood flood-opacity="0" result="BackgroundImageFix"/>
<feBlend mode="normal" in="SourceGraphic" in2="BackgroundImageFix" result="shape"/>
<feColorMatrix in="SourceAlpha" type="matrix" values="0 0 0 0 0 0 0 0 0 0 0 0 0 0 0 0 0 0 127 0" result="hardAlpha"/>
<feOffset dx="1"/>
<feComposite in2="hardAlpha" operator="arithmetic" k2="-1" k3="1"/>
<feColorMatrix type="matrix" values="0 0 0 0 0 0 0 0 0 0 0 0 0 0 0 0 0 0 0.25 0"/>
<feBlend mode="normal" in2="shape" result="effect1_innerShadow_135_186"/>
</filter>
<filter id="filter10_i_135_186" x="1688.42" y="13.2313" width="8.67969" height="7.99792" filterUnits="userSpaceOnUse" color-interpolation-filters="sRGB">
<feFlood flood-opacity="0" result="BackgroundImageFix"/>
<feBlend mode="normal" in="SourceGraphic" in2="BackgroundImageFix" result="shape"/>
<feColorMatrix in="SourceAlpha" type="matrix" values="0 0 0 0 0 0 0 0 0 0 0 0 0 0 0 0 0 0 127 0" result="hardAlpha"/>
<feOffset dx="1" dy="2"/>
<feComposite in2="hardAlpha" operator="arithmetic" k2="-1" k3="1"/>
<feColorMatrix type="matrix" values="0 0 0 0 0 0 0 0 0 0 0 0 0 0 0 0 0 0 0.25 0"/>
<feBlend mode="normal" in2="shape" result="effect1_innerShadow_135_186"/>
</filter>
<filter id="filter11_i_135_186" x="0" y="25" width="40" height="24.3822" filterUnits="userSpaceOnUse" color-interpolation-filters="sRGB">
<feFlood flood-opacity="0" result="BackgroundImageFix"/>
<feBlend mode="normal" in="SourceGraphic" in2="BackgroundImageFix" result="shape"/>
<feColorMatrix in="SourceAlpha" type="matrix" values="0 0 0 0 0 0 0 0 0 0 0 0 0 0 0 0 0 0 127 0" result="hardAlpha"/>
<feOffset dy="2"/>
<feComposite in2="hardAlpha" operator="arithmetic" k2="-1" k3="1"/>
<feColorMatrix type="matrix" values="0 0 0 0 0 0 0 0 0 0 0 0 0 0 0 0 0 0 0.25 0"/>
<feBlend mode="normal" in2="shape" result="effect1_innerShadow_135_186"/>
</filter>
<filter id="filter12_i_135_186" x="11" y="22" width="40" height="24.3822" filterUnits="userSpaceOnUse" color-interpolation-filters="sRGB">
<feFlood flood-opacity="0" result="BackgroundImageFix"/>
<feBlend mode="normal" in="SourceGraphic" in2="BackgroundImageFix" result="shape"/>
<feColorMatrix in="SourceAlpha" type="matrix" values="0 0 0 0 0 0 0 0 0 0 0 0 0 0 0 0 0 0 127 0" result="hardAlpha"/>
<feOffset dy="2"/>
<feComposite in2="hardAlpha" operator="arithmetic" k2="-1" k3="1"/>
<feColorMatrix type="matrix" values="0 0 0 0 0 0 0 0 0 0 0 0 0 0 0 0 0 0 0.25 0"/>
<feBlend mode="normal" in2="shape" result="effect1_innerShadow_135_186"/>
</filter>
<filter id="filter13_i_135_186" x="34" y="45" width="7" height="4" filterUnits="userSpaceOnUse" color-interpolation-filters="sRGB">
<feFlood flood-opacity="0" result="BackgroundImageFix"/>
<feBlend mode="normal" in="SourceGraphic" in2="BackgroundImageFix" result="shape"/>
<feColorMatrix in="SourceAlpha" type="matrix" values="0 0 0 0 0 0 0 0 0 0 0 0 0 0 0 0 0 0 127 0" result="hardAlpha"/>
<feOffset dy="1"/>
<feComposite in2="hardAlpha" operator="arithmetic" k2="-1" k3="1"/>
<feColorMatrix type="matrix" values="0 0 0 0 0 0 0 0 0 0 0 0 0 0 0 0 0 0 0.25 0"/>
<feBlend mode="normal" in2="shape" result="effect1_innerShadow_135_186"/>
</filter>
<filter id="filter14_i_135_186" x="33" y="49" width="9" height="4" filterUnits="userSpaceOnUse" color-interpolation-filters="sRGB">
<feFlood flood-opacity="0" result="BackgroundImageFix"/>
<feBlend mode="normal" in="SourceGraphic" in2="BackgroundImageFix" result="shape"/>
<feColorMatrix in="SourceAlpha" type="matrix" values="0 0 0 0 0 0 0 0 0 0 0 0 0 0 0 0 0 0 127 0" result="hardAlpha"/>
<feOffset dx="1" dy="1"/>
<feComposite in2="hardAlpha" operator="arithmetic" k2="-1" k3="1"/>
<feColorMatrix type="matrix" values="0 0 0 0 0 0 0 0 0 0 0 0 0 0 0 0 0 0 0.25 0"/>
<feBlend mode="normal" in2="shape" result="effect1_innerShadow_135_186"/>
</filter>
<filter id="filter15_i_135_186" x="45" y="42" width="7" height="4" filterUnits="userSpaceOnUse" color-interpolation-filters="sRGB">
<feFlood flood-opacity="0" result="BackgroundImageFix"/>
<feBlend mode="normal" in="SourceGraphic" in2="BackgroundImageFix" result="shape"/>
<feColorMatrix in="SourceAlpha" type="matrix" values="0 0 0 0 0 0 0 0 0 0 0 0 0 0 0 0 0 0 127 0" result="hardAlpha"/>
<feOffset dy="1"/>
<feComposite in2="hardAlpha" operator="arithmetic" k2="-1" k3="1"/>
<feColorMatrix type="matrix" values="0 0 0 0 0 0 0 0 0 0 0 0 0 0 0 0 0 0 0.25 0"/>
<feBlend mode="normal" in2="shape" result="effect1_innerShadow_135_186"/>
</filter>
<filter id="filter16_i_135_186" x="44" y="46" width="9" height="4" filterUnits="userSpaceOnUse" color-interpolation-filters="sRGB">
<feFlood flood-opacity="0" result="BackgroundImageFix"/>
<feBlend mode="normal" in="SourceGraphic" in2="BackgroundImageFix" result="shape"/>
<feColorMatrix in="SourceAlpha" type="matrix" values="0 0 0 0 0 0 0 0 0 0 0 0 0 0 0 0 0 0 127 0" result="hardAlpha"/>
<feOffset dx="1" dy="1"/>
<feComposite in2="hardAlpha" operator="arithmetic" k2="-1" k3="1"/>
<feColorMatrix type="matrix" values="0 0 0 0 0 0 0 0 0 0 0 0 0 0 0 0 0 0 0.25 0"/>
<feBlend mode="normal" in2="shape" result="effect1_innerShadow_135_186"/>
</filter>
</defs>
</svg>
